<?xml version="1.0" encoding="UTF-8" standalone="no"?>
<!DOCTYPE svg PUBLIC "-//W3C//DTD SVG 1.1//EN"
 "http://www.w3.org/Graphics/SVG/1.1/DTD/svg11.dtd">
<!-- Generated by graphviz version 5.0.0 (20220707.1540)
 -->
<!-- Title: dependencies Pages: 1 -->
<svg width="1168pt" height="174pt"
 viewBox="0.00 0.00 1168.00 173.80" xmlns="http://www.w3.org/2000/svg" xmlns:xlink="http://www.w3.org/1999/xlink">
<g id="graph0" class="graph" transform="scale(1 1) rotate(0) translate(4 169.8)">
<title>dependencies</title>
<polygon fill="white" stroke="transparent" points="-4,4 -4,-169.8 1164,-169.8 1164,4 -4,4"/>
<text text-anchor="middle" x="580" y="-8.2" font-family="sans-serif" font-size="14.00">dependencies</text>
<g id="clust1" class="cluster">
<title>cluster_AdministratorModule</title>
<polygon fill="none" stroke="black" stroke-dasharray="1,5" points="8,-32.8 8,-157.8 1152,-157.8 1152,-32.8 8,-32.8"/>
</g>
<g id="clust8" class="cluster">
<title>cluster_AdministratorModule_imports</title>
<polygon fill="none" stroke="black" points="944,-40.8 944,-92.8 1144,-92.8 1144,-40.8 944,-40.8"/>
</g>
<g id="clust2" class="cluster">
<title>cluster_AdministratorModule_declarations</title>
<polygon fill="none" stroke="black" points="16,-40.8 16,-92.8 936,-92.8 936,-40.8 16,-40.8"/>
</g>
<!-- AdminDeviceFormComponent -->
<g id="node1" class="node">
<title>AdminDeviceFormComponent</title>
<polygon fill="#ffffb3" stroke="black" points="928.2,-84.8 737.8,-84.8 737.8,-48.8 928.2,-48.8 928.2,-84.8"/>
<text text-anchor="middle" x="833" y="-62.6" font-family="Times,serif" font-size="14.00">AdminDeviceFormComponent</text>
</g>
<!-- AdministratorModule -->
<g id="node6" class="node">
<title>AdministratorModule</title>
<polygon fill="#8dd3c7" stroke="black" points="591.1,-149.8 588.1,-153.8 567.1,-153.8 564.1,-149.8 452.9,-149.8 452.9,-113.8 591.1,-113.8 591.1,-149.8"/>
<text text-anchor="middle" x="522" y="-127.6" font-family="Times,serif" font-size="14.00">AdministratorModule</text>
</g>
<!-- AdminDeviceFormComponent&#45;&gt;AdministratorModule -->
<g id="edge1" class="edge">
<title>AdminDeviceFormComponent&#45;&gt;AdministratorModule</title>
<path fill="none" stroke="black" d="M833,-84.82C833,-102.17 833,-125.8 833,-125.8 833,-125.8 601.41,-125.8 601.41,-125.8"/>
<polygon fill="black" stroke="black" points="601.41,-122.3 591.41,-125.8 601.41,-129.3 601.41,-122.3"/>
</g>
<!-- AdminDutytitleFormComponent -->
<g id="node2" class="node">
<title>AdminDutytitleFormComponent</title>
<polygon fill="#ffffb3" stroke="black" points="720.33,-84.8 519.67,-84.8 519.67,-48.8 720.33,-48.8 720.33,-84.8"/>
<text text-anchor="middle" x="620" y="-62.6" font-family="Times,serif" font-size="14.00">AdminDutytitleFormComponent</text>
</g>
<!-- AdminDutytitleFormComponent&#45;&gt;AdministratorModule -->
<g id="edge2" class="edge">
<title>AdminDutytitleFormComponent&#45;&gt;AdministratorModule</title>
<path fill="none" stroke="black" d="M555.44,-84.91C555.44,-84.91 555.44,-103.79 555.44,-103.79"/>
<polygon fill="black" stroke="black" points="551.94,-103.79 555.44,-113.79 558.94,-103.79 551.94,-103.79"/>
</g>
<!-- AdminHomeComponent -->
<g id="node3" class="node">
<title>AdminHomeComponent</title>
<polygon fill="#ffffb3" stroke="black" points="502.44,-84.8 347.56,-84.8 347.56,-48.8 502.44,-48.8 502.44,-84.8"/>
<text text-anchor="middle" x="425" y="-62.6" font-family="Times,serif" font-size="14.00">AdminHomeComponent</text>
</g>
<!-- AdminHomeComponent&#45;&gt;AdministratorModule -->
<g id="edge3" class="edge">
<title>AdminHomeComponent&#45;&gt;AdministratorModule</title>
<path fill="none" stroke="black" d="M477.58,-84.91C477.58,-84.91 477.58,-103.79 477.58,-103.79"/>
<polygon fill="black" stroke="black" points="474.08,-103.79 477.58,-113.79 481.08,-103.79 474.08,-103.79"/>
</g>
<!-- LayoutBranchComponent -->
<g id="node4" class="node">
<title>LayoutBranchComponent</title>
<polygon fill="#ffffb3" stroke="black" points="329.91,-84.8 168.09,-84.8 168.09,-48.8 329.91,-48.8 329.91,-84.8"/>
<text text-anchor="middle" x="249" y="-62.6" font-family="Times,serif" font-size="14.00">LayoutBranchComponent</text>
</g>
<!-- LayoutBranchComponent&#45;&gt;AdministratorModule -->
<g id="edge4" class="edge">
<title>LayoutBranchComponent&#45;&gt;AdministratorModule</title>
<path fill="none" stroke="black" d="M249,-84.82C249,-102.17 249,-125.8 249,-125.8 249,-125.8 442.76,-125.8 442.76,-125.8"/>
<polygon fill="black" stroke="black" points="442.76,-129.3 452.76,-125.8 442.76,-122.3 442.76,-129.3"/>
</g>
<!-- LayoutsComponent -->
<g id="node5" class="node">
<title>LayoutsComponent</title>
<polygon fill="#ffffb3" stroke="black" points="150.44,-84.8 23.56,-84.8 23.56,-48.8 150.44,-48.8 150.44,-84.8"/>
<text text-anchor="middle" x="87" y="-62.6" font-family="Times,serif" font-size="14.00">LayoutsComponent</text>
</g>
<!-- LayoutsComponent&#45;&gt;AdministratorModule -->
<g id="edge5" class="edge">
<title>LayoutsComponent&#45;&gt;AdministratorModule</title>
<path fill="none" stroke="black" d="M87,-85.08C87,-106.12 87,-137.8 87,-137.8 87,-137.8 442.59,-137.8 442.59,-137.8"/>
<polygon fill="black" stroke="black" points="442.59,-141.3 452.59,-137.8 442.59,-134.3 442.59,-141.3"/>
</g>
<!-- AdministratorRoutingModule -->
<g id="node7" class="node">
<title>AdministratorRoutingModule</title>
<polygon fill="#8dd3c7" stroke="black" points="1135.71,-84.8 1132.71,-88.8 1111.71,-88.8 1108.71,-84.8 952.29,-84.8 952.29,-48.8 1135.71,-48.8 1135.71,-84.8"/>
<text text-anchor="middle" x="1044" y="-62.6" font-family="Times,serif" font-size="14.00">AdministratorRoutingModule</text>
</g>
<!-- AdministratorRoutingModule&#45;&gt;AdministratorModule -->
<g id="edge6" class="edge">
<title>AdministratorRoutingModule&#45;&gt;AdministratorModule</title>
<path fill="none" stroke="black" d="M1044,-85.08C1044,-106.12 1044,-137.8 1044,-137.8 1044,-137.8 601.32,-137.8 601.32,-137.8"/>
<polygon fill="black" stroke="black" points="601.32,-134.3 591.32,-137.8 601.32,-141.3 601.32,-134.3"/>
</g>
</g>
</svg>
