<?xml version="1.0" encoding="UTF-8" standalone="no"?>
<!DOCTYPE svg PUBLIC "-//W3C//DTD SVG 1.1//EN"
 "http://www.w3.org/Graphics/SVG/1.1/DTD/svg11.dtd">
<!-- Generated by graphviz version 5.0.0 (20220707.1540)
 -->
<!-- Title: dependencies Pages: 1 -->
<svg width="3712pt" height="323pt"
 viewBox="0.00 0.00 3712.00 322.80" xmlns="http://www.w3.org/2000/svg" xmlns:xlink="http://www.w3.org/1999/xlink">
<g id="graph0" class="graph" transform="scale(1 1) rotate(0) translate(4 318.8)">
<title>dependencies</title>
<polygon fill="white" stroke="transparent" points="-4,4 -4,-318.8 3708,-318.8 3708,4 -4,4"/>
<text text-anchor="middle" x="1852" y="-8.2" font-family="sans-serif" font-size="14.00">dependencies</text>
<g id="clust1" class="cluster">
<title>cluster_AdministratorModule</title>
<polygon fill="none" stroke="black" stroke-dasharray="1,5" points="8,-32.8 8,-168.8 1152,-168.8 1152,-32.8 8,-32.8"/>
</g>
<g id="clust2" class="cluster">
<title>cluster_AdministratorModule_declarations</title>
<polygon fill="none" stroke="black" points="224,-40.8 224,-92.8 1144,-92.8 1144,-40.8 224,-40.8"/>
</g>
<g id="clust8" class="cluster">
<title>cluster_AdministratorModule_imports</title>
<polygon fill="none" stroke="black" points="16,-40.8 16,-92.8 216,-92.8 216,-40.8 16,-40.8"/>
</g>
<g id="clust18" class="cluster">
<title>cluster_AppModule</title>
<polygon fill="none" stroke="black" stroke-dasharray="1,5" points="1452,-108.8 1452,-306.8 1847,-306.8 1847,-108.8 1452,-108.8"/>
</g>
<g id="clust19" class="cluster">
<title>cluster_AppModule_declarations</title>
<polygon fill="none" stroke="black" points="1717,-116.8 1717,-168.8 1839,-168.8 1839,-116.8 1717,-116.8"/>
</g>
<g id="clust21" class="cluster">
<title>cluster_AppModule_imports</title>
<polygon fill="none" stroke="black" points="1460,-116.8 1460,-168.8 1709,-168.8 1709,-116.8 1460,-116.8"/>
</g>
<g id="clust23" class="cluster">
<title>cluster_AppModule_bootstrap</title>
<polygon fill="none" stroke="black" points="1575,-246.8 1575,-298.8 1699,-298.8 1699,-246.8 1575,-246.8"/>
</g>
<g id="clust31" class="cluster">
<title>cluster_CoreModule</title>
<polygon fill="none" stroke="black" stroke-dasharray="1,5" points="1160,-32.8 1160,-100.8 1865,-100.8 1865,-32.8 1160,-32.8"/>
</g>
<g id="clust32" class="cluster">
<title>cluster_CoreModule_declarations</title>
<polygon fill="none" stroke="black" points="1306,-40.8 1306,-92.8 1857,-92.8 1857,-40.8 1306,-40.8"/>
</g>
<g id="clust38" class="cluster">
<title>cluster_CoreModule_exports</title>
<polygon fill="none" stroke="black" points="1168,-40.8 1168,-92.8 1298,-92.8 1298,-40.8 1168,-40.8"/>
</g>
<g id="clust41" class="cluster">
<title>cluster_HomeModule</title>
<polygon fill="none" stroke="black" stroke-dasharray="1,5" points="1873,-32.8 1873,-168.8 2183,-168.8 2183,-32.8 1873,-32.8"/>
</g>
<g id="clust42" class="cluster">
<title>cluster_HomeModule_declarations</title>
<polygon fill="none" stroke="black" points="2043,-40.8 2043,-92.8 2175,-92.8 2175,-40.8 2043,-40.8"/>
</g>
<g id="clust44" class="cluster">
<title>cluster_HomeModule_imports</title>
<polygon fill="none" stroke="black" points="1881,-40.8 1881,-92.8 2035,-92.8 2035,-40.8 1881,-40.8"/>
</g>
<g id="clust54" class="cluster">
<title>cluster_SuperadministratorModule</title>
<polygon fill="none" stroke="black" stroke-dasharray="1,5" points="2191,-32.8 2191,-168.8 3696,-168.8 3696,-32.8 2191,-32.8"/>
</g>
<g id="clust55" class="cluster">
<title>cluster_SuperadministratorModule_declarations</title>
<polygon fill="none" stroke="black" points="2435,-40.8 2435,-92.8 3688,-92.8 3688,-40.8 2435,-40.8"/>
</g>
<g id="clust62" class="cluster">
<title>cluster_SuperadministratorModule_imports</title>
<polygon fill="none" stroke="black" points="2199,-40.8 2199,-92.8 2427,-92.8 2427,-40.8 2199,-40.8"/>
</g>
<!-- AdminDeviceFormComponent -->
<g id="node1" class="node">
<title>AdminDeviceFormComponent</title>
<polygon fill="#ffffb3" stroke="black" points="1136.2,-84.8 945.8,-84.8 945.8,-48.8 1136.2,-48.8 1136.2,-84.8"/>
<text text-anchor="middle" x="1041" y="-62.6" font-family="Times,serif" font-size="14.00">AdminDeviceFormComponent</text>
</g>
<!-- AdministratorModule -->
<g id="node6" class="node">
<title>AdministratorModule</title>
<polygon fill="#8dd3c7" stroke="black" points="614.1,-160.8 611.1,-164.8 590.1,-164.8 587.1,-160.8 475.9,-160.8 475.9,-124.8 614.1,-124.8 614.1,-160.8"/>
<text text-anchor="middle" x="545" y="-138.6" font-family="Times,serif" font-size="14.00">AdministratorModule</text>
</g>
<!-- AdminDeviceFormComponent&#45;&gt;AdministratorModule -->
<g id="edge1" class="edge">
<title>AdminDeviceFormComponent&#45;&gt;AdministratorModule</title>
<path fill="none" stroke="black" d="M1041,-84.84C1041,-106.46 1041,-139.8 1041,-139.8 1041,-139.8 624.23,-139.8 624.23,-139.8"/>
<polygon fill="black" stroke="black" points="624.23,-136.3 614.23,-139.8 624.23,-143.3 624.23,-136.3"/>
</g>
<!-- AdminDutytitleFormComponent -->
<g id="node2" class="node">
<title>AdminDutytitleFormComponent</title>
<polygon fill="#ffffb3" stroke="black" points="928.33,-84.8 727.67,-84.8 727.67,-48.8 928.33,-48.8 928.33,-84.8"/>
<text text-anchor="middle" x="828" y="-62.6" font-family="Times,serif" font-size="14.00">AdminDutytitleFormComponent</text>
</g>
<!-- AdminDutytitleFormComponent&#45;&gt;AdministratorModule -->
<g id="edge2" class="edge">
<title>AdminDutytitleFormComponent&#45;&gt;AdministratorModule</title>
<path fill="none" stroke="black" d="M828,-84.83C828,-104.38 828,-132.8 828,-132.8 828,-132.8 624.23,-132.8 624.23,-132.8"/>
<polygon fill="black" stroke="black" points="624.23,-129.3 614.23,-132.8 624.23,-136.3 624.23,-129.3"/>
</g>
<!-- AdminHomeComponent -->
<g id="node3" class="node">
<title>AdminHomeComponent</title>
<polygon fill="#ffffb3" stroke="black" points="710.44,-84.8 555.56,-84.8 555.56,-48.8 710.44,-48.8 710.44,-84.8"/>
<text text-anchor="middle" x="633" y="-62.6" font-family="Times,serif" font-size="14.00">AdminHomeComponent</text>
</g>
<!-- AdminHomeComponent&#45;&gt;AdministratorModule -->
<g id="edge3" class="edge">
<title>AdminHomeComponent&#45;&gt;AdministratorModule</title>
<path fill="none" stroke="black" d="M584.92,-84.81C584.92,-84.81 584.92,-114.65 584.92,-114.65"/>
<polygon fill="black" stroke="black" points="581.42,-114.65 584.92,-124.65 588.42,-114.65 581.42,-114.65"/>
</g>
<!-- LayoutBranchComponent -->
<g id="node4" class="node">
<title>LayoutBranchComponent</title>
<polygon fill="#ffffb3" stroke="black" points="537.91,-84.8 376.09,-84.8 376.09,-48.8 537.91,-48.8 537.91,-84.8"/>
<text text-anchor="middle" x="457" y="-62.6" font-family="Times,serif" font-size="14.00">LayoutBranchComponent</text>
</g>
<!-- LayoutBranchComponent&#45;&gt;AdministratorModule -->
<g id="edge4" class="edge">
<title>LayoutBranchComponent&#45;&gt;AdministratorModule</title>
<path fill="none" stroke="black" d="M506.83,-84.81C506.83,-84.81 506.83,-114.65 506.83,-114.65"/>
<polygon fill="black" stroke="black" points="503.33,-114.65 506.83,-124.65 510.33,-114.65 503.33,-114.65"/>
</g>
<!-- LayoutsComponent -->
<g id="node5" class="node">
<title>LayoutsComponent</title>
<polygon fill="#ffffb3" stroke="black" points="358.44,-84.8 231.56,-84.8 231.56,-48.8 358.44,-48.8 358.44,-84.8"/>
<text text-anchor="middle" x="295" y="-62.6" font-family="Times,serif" font-size="14.00">LayoutsComponent</text>
</g>
<!-- LayoutsComponent&#45;&gt;AdministratorModule -->
<g id="edge5" class="edge">
<title>LayoutsComponent&#45;&gt;AdministratorModule</title>
<path fill="none" stroke="black" d="M295,-84.83C295,-105.57 295,-136.8 295,-136.8 295,-136.8 465.69,-136.8 465.69,-136.8"/>
<polygon fill="black" stroke="black" points="465.69,-140.3 475.69,-136.8 465.69,-133.3 465.69,-140.3"/>
</g>
<!-- AdministratorRoutingModule -->
<g id="node7" class="node">
<title>AdministratorRoutingModule</title>
<polygon fill="#8dd3c7" stroke="black" points="207.71,-84.8 204.71,-88.8 183.71,-88.8 180.71,-84.8 24.29,-84.8 24.29,-48.8 207.71,-48.8 207.71,-84.8"/>
<text text-anchor="middle" x="116" y="-62.6" font-family="Times,serif" font-size="14.00">AdministratorRoutingModule</text>
</g>
<!-- AdministratorRoutingModule&#45;&gt;AdministratorModule -->
<g id="edge6" class="edge">
<title>AdministratorRoutingModule&#45;&gt;AdministratorModule</title>
<path fill="none" stroke="black" d="M116,-85C116,-109.16 116,-148.8 116,-148.8 116,-148.8 465.6,-148.8 465.6,-148.8"/>
<polygon fill="black" stroke="black" points="465.6,-152.3 475.6,-148.8 465.6,-145.3 465.6,-152.3"/>
</g>
<!-- AppComponent -->
<g id="node8" class="node">
<title>AppComponent</title>
<polygon fill="#ffffb3" stroke="black" points="1830.94,-160.8 1725.06,-160.8 1725.06,-124.8 1830.94,-124.8 1830.94,-160.8"/>
<text text-anchor="middle" x="1778" y="-138.6" font-family="Times,serif" font-size="14.00">AppComponent</text>
</g>
<!-- AppModule -->
<g id="node9" class="node">
<title>AppModule</title>
<polygon fill="#8dd3c7" stroke="black" points="1678.66,-225.8 1675.66,-229.8 1654.66,-229.8 1651.66,-225.8 1595.34,-225.8 1595.34,-189.8 1678.66,-189.8 1678.66,-225.8"/>
<text text-anchor="middle" x="1637" y="-203.6" font-family="Times,serif" font-size="14.00">AppModule</text>
</g>
<!-- AppComponent&#45;&gt;AppModule -->
<g id="edge7" class="edge">
<title>AppComponent&#45;&gt;AppModule</title>
<path fill="none" stroke="black" d="M1778,-160.91C1778,-180.14 1778,-207.8 1778,-207.8 1778,-207.8 1688.92,-207.8 1688.92,-207.8"/>
<polygon fill="black" stroke="black" points="1688.92,-204.3 1678.92,-207.8 1688.92,-211.3 1688.92,-204.3"/>
</g>
<!-- AppComponent  -->
<g id="node12" class="node">
<title>AppComponent </title>
<polygon fill="#80b1d3" stroke="black" points="1691.44,-290.8 1582.56,-290.8 1582.56,-254.8 1691.44,-254.8 1691.44,-290.8"/>
<text text-anchor="middle" x="1637" y="-268.6" font-family="Times,serif" font-size="14.00">AppComponent </text>
</g>
<!-- AppModule&#45;&gt;AppComponent  -->
<g id="edge10" class="edge">
<title>AppModule&#45;&gt;AppComponent </title>
<path fill="none" stroke="black" stroke-dasharray="1,5" d="M1637,-225.91C1637,-225.91 1637,-244.79 1637,-244.79"/>
<polygon fill="black" stroke="black" points="1633.5,-244.79 1637,-254.79 1640.5,-244.79 1633.5,-244.79"/>
</g>
<!-- AppRoutingModule -->
<g id="node10" class="node">
<title>AppRoutingModule</title>
<polygon fill="#8dd3c7" stroke="black" points="1701.28,-160.8 1698.28,-164.8 1677.28,-164.8 1674.28,-160.8 1572.72,-160.8 1572.72,-124.8 1701.28,-124.8 1701.28,-160.8"/>
<text text-anchor="middle" x="1637" y="-138.6" font-family="Times,serif" font-size="14.00">AppRoutingModule</text>
</g>
<!-- AppRoutingModule&#45;&gt;AppModule -->
<g id="edge8" class="edge">
<title>AppRoutingModule&#45;&gt;AppModule</title>
<path fill="none" stroke="black" d="M1637,-160.91C1637,-160.91 1637,-179.79 1637,-179.79"/>
<polygon fill="black" stroke="black" points="1633.5,-179.79 1637,-189.79 1640.5,-179.79 1633.5,-179.79"/>
</g>
<!-- CoreModule -->
<g id="node11" class="node">
<title>CoreModule</title>
<polygon fill="#8dd3c7" stroke="black" points="1554.27,-160.8 1551.27,-164.8 1530.27,-164.8 1527.27,-160.8 1467.73,-160.8 1467.73,-124.8 1554.27,-124.8 1554.27,-160.8"/>
<text text-anchor="middle" x="1511" y="-138.6" font-family="Times,serif" font-size="14.00">CoreModule</text>
</g>
<!-- CoreModule&#45;&gt;AppModule -->
<g id="edge9" class="edge">
<title>CoreModule&#45;&gt;AppModule</title>
<path fill="none" stroke="black" d="M1511,-160.91C1511,-180.14 1511,-207.8 1511,-207.8 1511,-207.8 1585.04,-207.8 1585.04,-207.8"/>
<polygon fill="black" stroke="black" points="1585.04,-211.3 1595.04,-207.8 1585.04,-204.3 1585.04,-211.3"/>
</g>
<!-- ShellComponent  -->
<g id="node17" class="node">
<title>ShellComponent </title>
<polygon fill="#fb8072" stroke="black" points="1289.61,-84.8 1176.39,-84.8 1176.39,-48.8 1289.61,-48.8 1289.61,-84.8"/>
<text text-anchor="middle" x="1233" y="-62.6" font-family="Times,serif" font-size="14.00">ShellComponent </text>
</g>
<!-- CoreModule&#45;&gt;ShellComponent  -->
<g id="edge15" class="edge">
<title>CoreModule&#45;&gt;ShellComponent </title>
<path fill="none" stroke="black" stroke-dasharray="5,2" d="M1467.56,-153.8C1389.38,-153.8 1233,-153.8 1233,-153.8 1233,-153.8 1233,-94.83 1233,-94.83"/>
<polygon fill="black" stroke="black" points="1236.5,-94.83 1233,-84.83 1229.5,-94.83 1236.5,-94.83"/>
</g>
<!-- HeaderComponent -->
<g id="node13" class="node">
<title>HeaderComponent</title>
<polygon fill="#ffffb3" stroke="black" points="1848.75,-84.8 1727.25,-84.8 1727.25,-48.8 1848.75,-48.8 1848.75,-84.8"/>
<text text-anchor="middle" x="1788" y="-62.6" font-family="Times,serif" font-size="14.00">HeaderComponent</text>
</g>
<!-- HeaderComponent&#45;&gt;CoreModule -->
<g id="edge11" class="edge">
<title>HeaderComponent&#45;&gt;CoreModule</title>
<path fill="none" stroke="black" d="M1778.92,-84.84C1778.92,-97.36 1778.92,-111.8 1778.92,-111.8 1778.92,-111.8 1532.69,-111.8 1532.69,-111.8 1532.69,-111.8 1532.69,-114.77 1532.69,-114.77"/>
<polygon fill="black" stroke="black" points="1529.19,-114.77 1532.69,-124.77 1536.19,-114.77 1529.19,-114.77"/>
</g>
<!-- MainComponent -->
<g id="node14" class="node">
<title>MainComponent</title>
<polygon fill="#ffffb3" stroke="black" points="1709.38,-84.8 1598.62,-84.8 1598.62,-48.8 1709.38,-48.8 1709.38,-84.8"/>
<text text-anchor="middle" x="1654" y="-62.6" font-family="Times,serif" font-size="14.00">MainComponent</text>
</g>
<!-- MainComponent&#45;&gt;CoreModule -->
<g id="edge12" class="edge">
<title>MainComponent&#45;&gt;CoreModule</title>
<path fill="none" stroke="black" d="M1649.97,-85.04C1649.97,-92.23 1649.97,-98.8 1649.97,-98.8 1649.97,-98.8 1511,-98.8 1511,-98.8 1511,-98.8 1511,-114.65 1511,-114.65"/>
<polygon fill="black" stroke="black" points="1507.5,-114.65 1511,-124.65 1514.5,-114.65 1507.5,-114.65"/>
</g>
<!-- NotFoundComponent -->
<g id="node15" class="node">
<title>NotFoundComponent</title>
<polygon fill="#ffffb3" stroke="black" points="1580.12,-84.8 1441.88,-84.8 1441.88,-48.8 1580.12,-48.8 1580.12,-84.8"/>
<text text-anchor="middle" x="1511" y="-62.6" font-family="Times,serif" font-size="14.00">NotFoundComponent</text>
</g>
<!-- NotFoundComponent&#45;&gt;CoreModule -->
<g id="edge13" class="edge">
<title>NotFoundComponent&#45;&gt;CoreModule</title>
<path fill="none" stroke="black" d="M1489.31,-84.81C1489.31,-84.81 1489.31,-114.65 1489.31,-114.65"/>
<polygon fill="black" stroke="black" points="1485.81,-114.65 1489.31,-124.65 1492.81,-114.65 1485.81,-114.65"/>
</g>
<!-- ShellComponent -->
<g id="node16" class="node">
<title>ShellComponent</title>
<polygon fill="#ffffb3" stroke="black" points="1424.11,-84.8 1313.89,-84.8 1313.89,-48.8 1424.11,-48.8 1424.11,-84.8"/>
<text text-anchor="middle" x="1369" y="-62.6" font-family="Times,serif" font-size="14.00">ShellComponent</text>
</g>
<!-- ShellComponent&#45;&gt;CoreModule -->
<g id="edge14" class="edge">
<title>ShellComponent&#45;&gt;CoreModule</title>
<path fill="none" stroke="black" d="M1369,-84.95C1369,-108.56 1369,-146.8 1369,-146.8 1369,-146.8 1457.62,-146.8 1457.62,-146.8"/>
<polygon fill="black" stroke="black" points="1457.62,-150.3 1467.62,-146.8 1457.62,-143.3 1457.62,-150.3"/>
</g>
<!-- HomeComponent -->
<g id="node18" class="node">
<title>HomeComponent</title>
<polygon fill="#ffffb3" stroke="black" points="2166.55,-84.8 2051.45,-84.8 2051.45,-48.8 2166.55,-48.8 2166.55,-84.8"/>
<text text-anchor="middle" x="2109" y="-62.6" font-family="Times,serif" font-size="14.00">HomeComponent</text>
</g>
<!-- HomeModule -->
<g id="node19" class="node">
<title>HomeModule</title>
<polygon fill="#8dd3c7" stroke="black" points="2079.77,-160.8 2076.77,-164.8 2055.77,-164.8 2052.77,-160.8 1986.23,-160.8 1986.23,-124.8 2079.77,-124.8 2079.77,-160.8"/>
<text text-anchor="middle" x="2033" y="-138.6" font-family="Times,serif" font-size="14.00">HomeModule</text>
</g>
<!-- HomeComponent&#45;&gt;HomeModule -->
<g id="edge16" class="edge">
<title>HomeComponent&#45;&gt;HomeModule</title>
<path fill="none" stroke="black" d="M2065.56,-84.81C2065.56,-84.81 2065.56,-114.65 2065.56,-114.65"/>
<polygon fill="black" stroke="black" points="2062.06,-114.65 2065.56,-124.65 2069.06,-114.65 2062.06,-114.65"/>
</g>
<!-- HomeRoutingModule -->
<g id="node20" class="node">
<title>HomeRoutingModule</title>
<polygon fill="#8dd3c7" stroke="black" points="2027.38,-84.8 2024.38,-88.8 2003.38,-88.8 2000.38,-84.8 1888.62,-84.8 1888.62,-48.8 2027.38,-48.8 2027.38,-84.8"/>
<text text-anchor="middle" x="1958" y="-62.6" font-family="Times,serif" font-size="14.00">HomeRoutingModule</text>
</g>
<!-- HomeRoutingModule&#45;&gt;HomeModule -->
<g id="edge17" class="edge">
<title>HomeRoutingModule&#45;&gt;HomeModule</title>
<path fill="none" stroke="black" d="M2006.78,-84.81C2006.78,-84.81 2006.78,-114.65 2006.78,-114.65"/>
<polygon fill="black" stroke="black" points="2003.28,-114.65 2006.78,-124.65 2010.28,-114.65 2003.28,-114.65"/>
</g>
<!-- SuperadminBranchComponent -->
<g id="node21" class="node">
<title>SuperadminBranchComponent</title>
<polygon fill="#ffffb3" stroke="black" points="3679.91,-84.8 3490.09,-84.8 3490.09,-48.8 3679.91,-48.8 3679.91,-84.8"/>
<text text-anchor="middle" x="3585" y="-62.6" font-family="Times,serif" font-size="14.00">SuperadminBranchComponent</text>
</g>
<!-- SuperadministratorModule -->
<g id="node27" class="node">
<title>SuperadministratorModule</title>
<polygon fill="#8dd3c7" stroke="black" points="3040.36,-160.8 3037.36,-164.8 3016.36,-164.8 3013.36,-160.8 2873.64,-160.8 2873.64,-124.8 3040.36,-124.8 3040.36,-160.8"/>
<text text-anchor="middle" x="2957" y="-138.6" font-family="Times,serif" font-size="14.00">SuperadministratorModule</text>
</g>
<!-- SuperadminBranchComponent&#45;&gt;SuperadministratorModule -->
<g id="edge18" class="edge">
<title>SuperadminBranchComponent&#45;&gt;SuperadministratorModule</title>
<path fill="none" stroke="black" d="M3585,-84.83C3585,-109.78 3585,-151.8 3585,-151.8 3585,-151.8 3050.39,-151.8 3050.39,-151.8"/>
<polygon fill="black" stroke="black" points="3050.39,-148.3 3040.39,-151.8 3050.39,-155.3 3050.39,-148.3"/>
</g>
<!-- SuperadminDivisionComponent -->
<g id="node22" class="node">
<title>SuperadminDivisionComponent</title>
<polygon fill="#ffffb3" stroke="black" points="3472.71,-84.8 3275.29,-84.8 3275.29,-48.8 3472.71,-48.8 3472.71,-84.8"/>
<text text-anchor="middle" x="3374" y="-62.6" font-family="Times,serif" font-size="14.00">SuperadminDivisionComponent</text>
</g>
<!-- SuperadminDivisionComponent&#45;&gt;SuperadministratorModule -->
<g id="edge19" class="edge">
<title>SuperadminDivisionComponent&#45;&gt;SuperadministratorModule</title>
<path fill="none" stroke="black" d="M3374,-84.81C3374,-107.29 3374,-142.8 3374,-142.8 3374,-142.8 3050.38,-142.8 3050.38,-142.8"/>
<polygon fill="black" stroke="black" points="3050.38,-139.3 3040.38,-142.8 3050.38,-146.3 3050.38,-139.3"/>
</g>
<!-- SuperadminHomeComponent -->
<g id="node23" class="node">
<title>SuperadminHomeComponent</title>
<polygon fill="#ffffb3" stroke="black" points="3257.7,-84.8 3074.3,-84.8 3074.3,-48.8 3257.7,-48.8 3257.7,-84.8"/>
<text text-anchor="middle" x="3166" y="-62.6" font-family="Times,serif" font-size="14.00">SuperadminHomeComponent</text>
</g>
<!-- SuperadminHomeComponent&#45;&gt;SuperadministratorModule -->
<g id="edge20" class="edge">
<title>SuperadminHomeComponent&#45;&gt;SuperadministratorModule</title>
<path fill="none" stroke="black" d="M3166,-85.11C3166,-104.95 3166,-133.8 3166,-133.8 3166,-133.8 3050.5,-133.8 3050.5,-133.8"/>
<polygon fill="black" stroke="black" points="3050.5,-130.3 3040.5,-133.8 3050.5,-137.3 3050.5,-130.3"/>
</g>
<!-- SuperadminLocationComponent -->
<g id="node24" class="node">
<title>SuperadminLocationComponent</title>
<polygon fill="#ffffb3" stroke="black" points="3056.25,-84.8 2857.75,-84.8 2857.75,-48.8 3056.25,-48.8 3056.25,-84.8"/>
<text text-anchor="middle" x="2957" y="-62.6" font-family="Times,serif" font-size="14.00">SuperadminLocationComponent</text>
</g>
<!-- SuperadminLocationComponent&#45;&gt;SuperadministratorModule -->
<g id="edge21" class="edge">
<title>SuperadminLocationComponent&#45;&gt;SuperadministratorModule</title>
<path fill="none" stroke="black" d="M2957,-84.81C2957,-84.81 2957,-114.65 2957,-114.65"/>
<polygon fill="black" stroke="black" points="2953.5,-114.65 2957,-124.65 2960.5,-114.65 2953.5,-114.65"/>
</g>
<!-- SuperadminOperationComponent -->
<g id="node25" class="node">
<title>SuperadminOperationComponent</title>
<polygon fill="#ffffb3" stroke="black" points="2839.47,-84.8 2634.53,-84.8 2634.53,-48.8 2839.47,-48.8 2839.47,-84.8"/>
<text text-anchor="middle" x="2737" y="-62.6" font-family="Times,serif" font-size="14.00">SuperadminOperationComponent</text>
</g>
<!-- SuperadminOperationComponent&#45;&gt;SuperadministratorModule -->
<g id="edge22" class="edge">
<title>SuperadminOperationComponent&#45;&gt;SuperadministratorModule</title>
<path fill="none" stroke="black" d="M2737,-85.11C2737,-104.95 2737,-133.8 2737,-133.8 2737,-133.8 2863.51,-133.8 2863.51,-133.8"/>
<polygon fill="black" stroke="black" points="2863.51,-137.3 2873.51,-133.8 2863.51,-130.3 2863.51,-137.3"/>
</g>
<!-- SuperadminUnitComponent -->
<g id="node26" class="node">
<title>SuperadminUnitComponent</title>
<polygon fill="#ffffb3" stroke="black" points="2616.88,-84.8 2443.12,-84.8 2443.12,-48.8 2616.88,-48.8 2616.88,-84.8"/>
<text text-anchor="middle" x="2530" y="-62.6" font-family="Times,serif" font-size="14.00">SuperadminUnitComponent</text>
</g>
<!-- SuperadminUnitComponent&#45;&gt;SuperadministratorModule -->
<g id="edge23" class="edge">
<title>SuperadminUnitComponent&#45;&gt;SuperadministratorModule</title>
<path fill="none" stroke="black" d="M2530,-84.81C2530,-107.29 2530,-142.8 2530,-142.8 2530,-142.8 2863.4,-142.8 2863.4,-142.8"/>
<polygon fill="black" stroke="black" points="2863.4,-146.3 2873.4,-142.8 2863.4,-139.3 2863.4,-146.3"/>
</g>
<!-- SuperadministratorRoutingModule -->
<g id="node28" class="node">
<title>SuperadministratorRoutingModule</title>
<polygon fill="#8dd3c7" stroke="black" points="2418.98,-84.8 2415.98,-88.8 2394.98,-88.8 2391.98,-84.8 2207.02,-84.8 2207.02,-48.8 2418.98,-48.8 2418.98,-84.8"/>
<text text-anchor="middle" x="2313" y="-62.6" font-family="Times,serif" font-size="14.00">SuperadministratorRoutingModule</text>
</g>
<!-- SuperadministratorRoutingModule&#45;&gt;SuperadministratorModule -->
<g id="edge24" class="edge">
<title>SuperadministratorRoutingModule&#45;&gt;SuperadministratorModule</title>
<path fill="none" stroke="black" d="M2313,-84.83C2313,-109.78 2313,-151.8 2313,-151.8 2313,-151.8 2863.47,-151.8 2863.47,-151.8"/>
<polygon fill="black" stroke="black" points="2863.47,-155.3 2873.47,-151.8 2863.47,-148.3 2863.47,-155.3"/>
</g>
</g>
</svg>
