<?xml version="1.0" encoding="UTF-8" standalone="no"?>
<!DOCTYPE svg PUBLIC "-//W3C//DTD SVG 1.1//EN"
 "http://www.w3.org/Graphics/SVG/1.1/DTD/svg11.dtd">
<!-- Generated by graphviz version 5.0.0 (20220707.1540)
 -->
<!-- Title: dependencies Pages: 1 -->
<svg width="1529pt" height="174pt"
 viewBox="0.00 0.00 1529.00 173.80" xmlns="http://www.w3.org/2000/svg" xmlns:xlink="http://www.w3.org/1999/xlink">
<g id="graph0" class="graph" transform="scale(1 1) rotate(0) translate(4 169.8)">
<title>dependencies</title>
<polygon fill="white" stroke="transparent" points="-4,4 -4,-169.8 1525,-169.8 1525,4 -4,4"/>
<text text-anchor="middle" x="760.5" y="-8.2" font-family="sans-serif" font-size="14.00">dependencies</text>
<g id="clust1" class="cluster">
<title>cluster_SuperadministratorModule</title>
<polygon fill="none" stroke="black" stroke-dasharray="1,5" points="8,-32.8 8,-157.8 1513,-157.8 1513,-32.8 8,-32.8"/>
</g>
<g id="clust9" class="cluster">
<title>cluster_SuperadministratorModule_imports</title>
<polygon fill="none" stroke="black" points="1277,-40.8 1277,-92.8 1505,-92.8 1505,-40.8 1277,-40.8"/>
</g>
<g id="clust2" class="cluster">
<title>cluster_SuperadministratorModule_declarations</title>
<polygon fill="none" stroke="black" points="16,-40.8 16,-92.8 1269,-92.8 1269,-40.8 16,-40.8"/>
</g>
<!-- SuperadminBranchComponent -->
<g id="node1" class="node">
<title>SuperadminBranchComponent</title>
<polygon fill="#ffffb3" stroke="black" points="1260.91,-84.8 1071.09,-84.8 1071.09,-48.8 1260.91,-48.8 1260.91,-84.8"/>
<text text-anchor="middle" x="1166" y="-62.6" font-family="Times,serif" font-size="14.00">SuperadminBranchComponent</text>
</g>
<!-- SuperadministratorModule -->
<g id="node7" class="node">
<title>SuperadministratorModule</title>
<polygon fill="#8dd3c7" stroke="black" points="830.36,-149.8 827.36,-153.8 806.36,-153.8 803.36,-149.8 663.64,-149.8 663.64,-113.8 830.36,-113.8 830.36,-149.8"/>
<text text-anchor="middle" x="747" y="-127.6" font-family="Times,serif" font-size="14.00">SuperadministratorModule</text>
</g>
<!-- SuperadminBranchComponent&#45;&gt;SuperadministratorModule -->
<g id="edge1" class="edge">
<title>SuperadminBranchComponent&#45;&gt;SuperadministratorModule</title>
<path fill="none" stroke="black" d="M1166,-84.91C1166,-104.14 1166,-131.8 1166,-131.8 1166,-131.8 840.53,-131.8 840.53,-131.8"/>
<polygon fill="black" stroke="black" points="840.53,-128.3 830.53,-131.8 840.53,-135.3 840.53,-128.3"/>
</g>
<!-- SuperadminDivisionComponent -->
<g id="node2" class="node">
<title>SuperadminDivisionComponent</title>
<polygon fill="#ffffb3" stroke="black" points="1053.71,-84.8 856.29,-84.8 856.29,-48.8 1053.71,-48.8 1053.71,-84.8"/>
<text text-anchor="middle" x="955" y="-62.6" font-family="Times,serif" font-size="14.00">SuperadminDivisionComponent</text>
</g>
<!-- SuperadminDivisionComponent&#45;&gt;SuperadministratorModule -->
<g id="edge2" class="edge">
<title>SuperadminDivisionComponent&#45;&gt;SuperadministratorModule</title>
<path fill="none" stroke="black" d="M955,-84.83C955,-101.2 955,-122.8 955,-122.8 955,-122.8 840.4,-122.8 840.4,-122.8"/>
<polygon fill="black" stroke="black" points="840.4,-119.3 830.4,-122.8 840.4,-126.3 840.4,-119.3"/>
</g>
<!-- SuperadminHomeComponent -->
<g id="node3" class="node">
<title>SuperadminHomeComponent</title>
<polygon fill="#ffffb3" stroke="black" points="838.7,-84.8 655.3,-84.8 655.3,-48.8 838.7,-48.8 838.7,-84.8"/>
<text text-anchor="middle" x="747" y="-62.6" font-family="Times,serif" font-size="14.00">SuperadminHomeComponent</text>
</g>
<!-- SuperadminHomeComponent&#45;&gt;SuperadministratorModule -->
<g id="edge3" class="edge">
<title>SuperadminHomeComponent&#45;&gt;SuperadministratorModule</title>
<path fill="none" stroke="black" d="M747,-84.91C747,-84.91 747,-103.79 747,-103.79"/>
<polygon fill="black" stroke="black" points="743.5,-103.79 747,-113.79 750.5,-103.79 743.5,-103.79"/>
</g>
<!-- SuperadminLocationComponent -->
<g id="node4" class="node">
<title>SuperadminLocationComponent</title>
<polygon fill="#ffffb3" stroke="black" points="637.25,-84.8 438.75,-84.8 438.75,-48.8 637.25,-48.8 637.25,-84.8"/>
<text text-anchor="middle" x="538" y="-62.6" font-family="Times,serif" font-size="14.00">SuperadminLocationComponent</text>
</g>
<!-- SuperadminLocationComponent&#45;&gt;SuperadministratorModule -->
<g id="edge4" class="edge">
<title>SuperadminLocationComponent&#45;&gt;SuperadministratorModule</title>
<path fill="none" stroke="black" d="M538,-84.83C538,-101.2 538,-122.8 538,-122.8 538,-122.8 653.5,-122.8 653.5,-122.8"/>
<polygon fill="black" stroke="black" points="653.5,-126.3 663.5,-122.8 653.5,-119.3 653.5,-126.3"/>
</g>
<!-- SuperadminOperationComponent -->
<g id="node5" class="node">
<title>SuperadminOperationComponent</title>
<polygon fill="#ffffb3" stroke="black" points="420.47,-84.8 215.53,-84.8 215.53,-48.8 420.47,-48.8 420.47,-84.8"/>
<text text-anchor="middle" x="318" y="-62.6" font-family="Times,serif" font-size="14.00">SuperadminOperationComponent</text>
</g>
<!-- SuperadminOperationComponent&#45;&gt;SuperadministratorModule -->
<g id="edge5" class="edge">
<title>SuperadminOperationComponent&#45;&gt;SuperadministratorModule</title>
<path fill="none" stroke="black" d="M318,-84.91C318,-104.14 318,-131.8 318,-131.8 318,-131.8 653.52,-131.8 653.52,-131.8"/>
<polygon fill="black" stroke="black" points="653.52,-135.3 663.52,-131.8 653.52,-128.3 653.52,-135.3"/>
</g>
<!-- SuperadminUnitComponent -->
<g id="node6" class="node">
<title>SuperadminUnitComponent</title>
<polygon fill="#ffffb3" stroke="black" points="197.88,-84.8 24.12,-84.8 24.12,-48.8 197.88,-48.8 197.88,-84.8"/>
<text text-anchor="middle" x="111" y="-62.6" font-family="Times,serif" font-size="14.00">SuperadminUnitComponent</text>
</g>
<!-- SuperadminUnitComponent&#45;&gt;SuperadministratorModule -->
<g id="edge6" class="edge">
<title>SuperadminUnitComponent&#45;&gt;SuperadministratorModule</title>
<path fill="none" stroke="black" d="M111,-85.09C111,-107.01 111,-140.8 111,-140.8 111,-140.8 653.53,-140.8 653.53,-140.8"/>
<polygon fill="black" stroke="black" points="653.53,-144.3 663.53,-140.8 653.53,-137.3 653.53,-144.3"/>
</g>
<!-- SuperadministratorRoutingModule -->
<g id="node8" class="node">
<title>SuperadministratorRoutingModule</title>
<polygon fill="#8dd3c7" stroke="black" points="1496.98,-84.8 1493.98,-88.8 1472.98,-88.8 1469.98,-84.8 1285.02,-84.8 1285.02,-48.8 1496.98,-48.8 1496.98,-84.8"/>
<text text-anchor="middle" x="1391" y="-62.6" font-family="Times,serif" font-size="14.00">SuperadministratorRoutingModule</text>
</g>
<!-- SuperadministratorRoutingModule&#45;&gt;SuperadministratorModule -->
<g id="edge7" class="edge">
<title>SuperadministratorRoutingModule&#45;&gt;SuperadministratorModule</title>
<path fill="none" stroke="black" d="M1391,-85.09C1391,-107.01 1391,-140.8 1391,-140.8 1391,-140.8 840.53,-140.8 840.53,-140.8"/>
<polygon fill="black" stroke="black" points="840.53,-137.3 830.53,-140.8 840.53,-144.3 840.53,-137.3"/>
</g>
</g>
</svg>
